<svg width="35" height="35" viewBox="0 0 35 35" fill="none" xmlns="http://www.w3.org/2000/svg">
<path d="M8.74992 27.7085V14.5835C8.74992 12.2629 9.67179 10.0373 11.3127 8.39631C12.9537 6.75537 15.1793 5.8335 17.4999 5.8335C19.8206 5.8335 22.0462 6.75537 23.6871 8.39631C25.328 10.0373 26.2499 12.2629 26.2499 14.5835V27.7085M8.74992 27.7085H26.2499M8.74992 27.7085H5.83325M26.2499 27.7085H29.1666M16.0416 32.0835H18.9583" stroke="#272727" stroke-linecap="round" stroke-linejoin="round"/>
<path d="M17.4998 5.83341C18.3053 5.83341 18.9582 5.1805 18.9582 4.37508C18.9582 3.56967 18.3053 2.91675 17.4998 2.91675C16.6944 2.91675 16.0415 3.56967 16.0415 4.37508C16.0415 5.1805 16.6944 5.83341 17.4998 5.83341Z" stroke="#272727"/>
</svg>
