<svg width="35" height="35" viewBox="0 0 35 35" fill="none" xmlns="http://www.w3.org/2000/svg">
<path d="M11.6666 20.2489C11.3652 20.2489 11.1027 20.1371 10.8791 19.9135C10.6555 19.6899 10.5437 19.4274 10.5437 19.126C10.5437 18.8246 10.6555 18.5626 10.8791 18.34C11.1027 18.1173 11.3652 18.0055 11.6666 18.0046C11.968 18.0036 12.2305 18.1154 12.4541 18.34C12.6777 18.5646 12.7895 18.8271 12.7895 19.1275C12.7895 19.4279 12.6777 19.6899 12.4541 19.9135C12.2305 20.1371 11.968 20.2489 11.6666 20.2489ZM17.4999 20.2489C17.1985 20.2489 16.936 20.1371 16.7124 19.9135C16.4888 19.6899 16.377 19.4274 16.377 19.126C16.377 18.8246 16.4888 18.5626 16.7124 18.34C16.936 18.1173 17.1985 18.0055 17.4999 18.0046C17.8013 18.0036 18.0638 18.1154 18.2874 18.34C18.511 18.5646 18.6228 18.8271 18.6228 19.1275C18.6228 19.4279 18.511 19.6899 18.2874 19.9135C18.0638 20.1371 17.8013 20.2489 17.4999 20.2489ZM23.3333 20.2489C23.0319 20.2489 22.7694 20.1371 22.5458 19.9135C22.3221 19.6899 22.2103 19.4274 22.2103 19.126C22.2103 18.8246 22.3221 18.5626 22.5458 18.34C22.7694 18.1173 23.0319 18.0055 23.3333 18.0046C23.6346 18.0036 23.8971 18.1154 24.1208 18.34C24.3444 18.5646 24.4562 18.8271 24.4562 19.1275C24.4562 19.4279 24.3444 19.6899 24.1208 19.9135C23.8971 20.1371 23.6346 20.2489 23.3333 20.2489ZM8.18992 30.625C7.51811 30.625 6.95763 30.4004 6.50846 29.9512C6.05929 29.5021 5.83422 28.9416 5.83325 28.2698V9.64685C5.83325 8.97601 6.05832 8.41601 6.50846 7.96685C6.9586 7.51768 7.51909 7.29261 8.18992 7.29164H10.7697V4.82414C10.7697 4.59761 10.8441 4.40997 10.9928 4.26122C11.1416 4.11247 11.3287 4.0381 11.5543 4.0381C11.7798 4.0381 11.9675 4.11247 12.1172 4.26122C12.2669 4.40997 12.3413 4.59761 12.3403 4.82414V7.29164H22.7733V4.76872C22.7733 4.56067 22.8428 4.38664 22.9818 4.24664C23.1208 4.10664 23.2944 4.03712 23.5024 4.0381C23.7105 4.03907 23.8835 4.10858 24.0216 4.24664C24.1596 4.38469 24.2296 4.55823 24.2316 4.76726V7.29164H26.8114C27.4822 7.29164 28.0427 7.51671 28.4928 7.96685C28.943 8.41698 29.1676 8.97747 29.1666 9.6483V28.2698C29.1666 28.9406 28.942 29.5011 28.4928 29.9512C28.0437 30.4014 27.4827 30.6259 26.8099 30.625H8.18992ZM8.18992 29.1666H26.8114C27.035 29.1666 27.2406 29.0733 27.4283 28.8866C27.6159 28.7 27.7092 28.4939 27.7083 28.2683V15.4816H7.29159V28.2698C7.29159 28.4934 7.38492 28.699 7.57159 28.8866C7.75825 29.0743 7.96388 29.1676 8.18846 29.1666M7.29159 14.0218H27.7083V9.64685C27.7083 9.42323 27.6149 9.21761 27.4283 9.02997C27.2416 8.84233 27.0355 8.749 26.8099 8.74997H8.18992C7.96534 8.74997 7.75922 8.8433 7.57159 9.02997C7.38395 9.21664 7.29061 9.42275 7.29159 9.6483V14.0218Z" fill="#272727"/>
</svg>
