<svg width="28" height="28" viewBox="0 0 28 28" fill="none" xmlns="http://www.w3.org/2000/svg">
<path d="M22.75 6.34375H19.6011L18.0469 4.01078C17.9868 3.92081 17.9055 3.84707 17.8101 3.79612C17.7147 3.74517 17.6082 3.71859 17.5 3.71875H10.5C10.3918 3.71859 10.2853 3.74517 10.1899 3.79612C10.0945 3.84707 10.0132 3.92081 9.95312 4.01078L8.39781 6.34375H5.25C4.61182 6.34375 3.99978 6.59727 3.54852 7.04852C3.09726 7.49978 2.84375 8.11182 2.84375 8.75V21C2.84375 21.6382 3.09726 22.2502 3.54852 22.7015C3.99978 23.1527 4.61182 23.4062 5.25 23.4062H22.75C23.3882 23.4062 24.0002 23.1527 24.4515 22.7015C24.9027 22.2502 25.1562 21.6382 25.1562 21V8.75C25.1562 8.11182 24.9027 7.49978 24.4515 7.04852C24.0002 6.59727 23.3882 6.34375 22.75 6.34375ZM23.8438 21C23.8438 21.2901 23.7285 21.5683 23.5234 21.7734C23.3183 21.9785 23.0401 22.0938 22.75 22.0938H5.25C4.95992 22.0938 4.68172 21.9785 4.4766 21.7734C4.27148 21.5683 4.15625 21.2901 4.15625 21V8.75C4.15625 8.45992 4.27148 8.18172 4.4766 7.9766C4.68172 7.77148 4.95992 7.65625 5.25 7.65625H8.75C8.85816 7.65641 8.96469 7.62983 9.0601 7.57889C9.15551 7.52794 9.23685 7.45419 9.29688 7.36422L10.8511 5.03125H17.1478L18.7031 7.36422C18.7632 7.45419 18.8445 7.52794 18.9399 7.57889C19.0353 7.62983 19.1418 7.65641 19.25 7.65625H22.75C23.0401 7.65625 23.3183 7.77148 23.5234 7.9766C23.7285 8.18172 23.8438 8.45992 23.8438 8.75V21ZM14 9.84375C13.0914 9.84375 12.2033 10.1132 11.4478 10.6179C10.6924 11.1227 10.1036 11.8402 9.75593 12.6795C9.40824 13.5189 9.31727 14.4426 9.49452 15.3337C9.67177 16.2248 10.1093 17.0433 10.7517 17.6858C11.3942 18.3282 12.2127 18.7657 13.1038 18.943C13.9949 19.1202 14.9186 19.0293 15.758 18.6816C16.5974 18.3339 17.3148 17.7451 17.8196 16.9897C18.3243 16.2342 18.5938 15.3461 18.5938 14.4375C18.5938 13.2192 18.1098 12.0507 17.2483 11.1892C16.3868 10.3277 15.2183 9.84375 14 9.84375ZM14 17.7188C13.351 17.7188 12.7166 17.5263 12.177 17.1658C11.6374 16.8052 11.2169 16.2928 10.9685 15.6932C10.7202 15.0936 10.6552 14.4339 10.7818 13.7974C10.9084 13.1609 11.2209 12.5762 11.6798 12.1173C12.1387 11.6584 12.7234 11.3459 13.3599 11.2193C13.9964 11.0927 14.6561 11.1577 15.2557 11.406C15.8552 11.6544 16.3677 12.0749 16.7283 12.6145C17.0888 13.1541 17.2812 13.7885 17.2812 14.4375C17.2812 15.3077 16.9355 16.1423 16.3202 16.7577C15.7048 17.373 14.8702 17.7188 14 17.7188Z" fill="#F6BE2E"/>
</svg>
