<svg width="35" height="35" viewBox="0 0 35 35" fill="none" xmlns="http://www.w3.org/2000/svg">
<path d="M11.1067 29.1666C10.4534 29.1666 9.8973 28.9372 9.43841 28.4783C8.97953 28.0194 8.75008 27.4638 8.75008 26.8114V8.74995H7.29175V7.29162H13.1251V6.1687H21.8751V7.29162H27.7084V8.74995H26.2501V26.8114C26.2501 27.4822 26.0255 28.0427 25.5763 28.4929C25.1272 28.943 24.5662 29.1676 23.8934 29.1666H11.1067ZM24.7917 8.74995H10.2084V26.8114C10.2084 27.0729 10.2925 27.2878 10.4607 27.456C10.6289 27.6242 10.8442 27.7083 11.1067 27.7083H23.8949C24.1185 27.7083 24.3241 27.615 24.5117 27.4283C24.6994 27.2416 24.7927 27.0355 24.7917 26.81V8.74995ZM14.3034 24.7916H15.7617V11.6666H14.3034V24.7916ZM19.2384 24.7916H20.6967V11.6666H19.2384V24.7916Z" fill="#272727"/>
</svg>
