<svg width="35" height="35" viewBox="0 0 35 35" fill="none" xmlns="http://www.w3.org/2000/svg">
<path d="M26.25 18.2583L27.7083 19.7166V28.2698C27.7083 28.9406 27.4837 29.5006 27.0346 29.9498C26.5854 30.3989 26.0244 30.624 25.3517 30.625H6.73167C6.05986 30.625 5.49937 30.4004 5.05021 29.9512C4.60104 29.502 4.37597 28.9416 4.375 28.2698V9.64684C4.375 8.976 4.60007 8.416 5.05021 7.96684C5.50035 7.51767 6.06035 7.2926 6.73021 7.29163H14.5556C14.473 7.56093 14.4161 7.81371 14.385 8.04996C14.3539 8.28621 14.3228 8.51954 14.2917 8.74996H6.73021C6.5066 8.74996 6.30097 8.84329 6.11333 9.02996C5.92569 9.21663 5.83236 9.42274 5.83333 9.64829V28.2698C5.83333 28.4934 5.92667 28.699 6.11333 28.8866C6.3 29.0743 6.50562 29.1676 6.73021 29.1666H25.3531C25.5767 29.1666 25.7824 29.0733 25.97 28.8866C26.1576 28.7 26.251 28.4943 26.25 28.2698V18.2583ZM26.9121 12.7545L31.7465 17.5904L30.7154 18.6214L25.8796 13.787C25.444 14.172 24.9394 14.4574 24.3658 14.6431C23.7922 14.8288 23.205 14.9211 22.6042 14.9202C21.0807 14.9202 19.793 14.3942 18.741 13.3423C17.6891 12.2903 17.1631 11.0026 17.1631 9.47913C17.1631 7.95566 17.6891 6.66795 18.741 5.616C19.793 4.56406 21.0807 4.03809 22.6042 4.03809C24.1276 4.03809 25.4153 4.56406 26.4673 5.616C27.5192 6.66795 28.0452 7.95566 28.0452 9.47913C28.0452 10.1354 27.9431 10.7367 27.739 11.2831C27.5348 11.8285 27.2592 12.318 26.9121 12.7545ZM22.6042 13.4604C23.7183 13.4604 24.6609 13.0754 25.4319 12.3054C26.2028 11.5354 26.5874 10.5933 26.5854 9.47913C26.5835 8.36496 26.198 7.42239 25.429 6.65142C24.6599 5.88045 23.7183 5.49593 22.6042 5.49788C21.49 5.49982 20.5474 5.88531 19.7765 6.65434C19.0055 7.42336 18.621 8.36496 18.6229 9.47913C18.6249 10.5933 19.0099 11.5359 19.7779 12.3068C20.546 13.0778 21.4885 13.4628 22.6056 13.4618M5.83333 18.2568V29.1666V8.74996V17.8354V17.427V18.2568Z" fill="#272727"/>
</svg>
