<svg width="35" height="35" viewBox="0 0 35 35" fill="none" xmlns="http://www.w3.org/2000/svg">
<path d="M6.18334 17.8643C5.60606 17.292 5.14878 16.6103 4.83827 15.859C4.52776 15.1078 4.37027 14.3022 4.37501 13.4893C4.37501 11.8455 5.028 10.269 6.19033 9.1067C7.35267 7.94436 8.92913 7.29137 10.5729 7.29137C12.8771 7.29137 14.8896 8.54554 15.9542 10.4122H17.5875C18.1288 9.46301 18.912 8.67418 19.8572 8.12599C20.8025 7.5778 21.8761 7.28983 22.9688 7.29137C24.6125 7.29137 26.189 7.94436 27.3513 9.1067C28.5137 10.269 29.1667 11.8455 29.1667 13.4893C29.1667 15.1955 28.4375 16.7705 27.3583 17.8643L16.7708 28.4372L6.18334 17.8643ZM28.3792 18.8997C29.7646 17.4997 30.625 15.6039 30.625 13.4893C30.625 11.4587 29.8184 9.51133 28.3825 8.0755C26.9467 6.63968 24.9993 5.83304 22.9688 5.83304C20.4167 5.83304 18.1563 7.07262 16.7708 8.99762C16.0639 8.01526 15.1328 7.2157 14.0548 6.66532C12.9769 6.11494 11.7832 5.82962 10.5729 5.83304C8.54236 5.83304 6.59496 6.63968 5.15914 8.0755C3.72331 9.51133 2.91667 11.4587 2.91667 13.4893C2.91667 15.6039 3.77709 17.4997 5.16251 18.8997L16.7708 30.508L28.3792 18.8997Z" fill="#272727"/>
</svg>
