<svg width="35" height="35" viewBox="0 0 35 35" fill="none" xmlns="http://www.w3.org/2000/svg">
<path d="M16.7708 21.1455V24.7913C16.7708 24.9994 16.8403 25.1729 16.9794 25.312C17.1184 25.451 17.2919 25.5205 17.5 25.5205C17.7081 25.5205 17.8816 25.451 18.0206 25.312C18.1597 25.1729 18.2292 24.9994 18.2292 24.7913V21.1455H21.875C22.0831 21.1455 22.2566 21.076 22.3956 20.937C22.5347 20.7979 22.6042 20.6244 22.6042 20.4163C22.6042 20.2083 22.5347 20.0347 22.3956 19.8957C22.2566 19.7567 22.0831 19.6872 21.875 19.6872H18.2292V16.0413C18.2292 15.8343 18.1597 15.6607 18.0206 15.5207C17.8816 15.3807 17.7081 15.3112 17.5 15.3122C17.2919 15.3131 17.1184 15.3827 16.9794 15.5207C16.8403 15.6588 16.7708 15.8323 16.7708 16.0413V19.6872H13.125C12.9179 19.6872 12.7444 19.7567 12.6044 19.8957C12.4644 20.0347 12.3949 20.2083 12.3958 20.4163C12.3968 20.6244 12.4663 20.7979 12.6044 20.937C12.7424 21.076 12.916 21.1455 13.125 21.1455H16.7708ZM6.73167 30.6247C6.05986 30.6247 5.49938 30.4001 5.05021 29.9509C4.60104 29.5018 4.37597 28.9413 4.375 28.2695V12.5632C4.375 11.8924 4.60007 11.3324 5.05021 10.8832C5.50035 10.4341 6.06035 10.209 6.73021 10.208H13.125V8.18822C13.125 7.51739 13.3501 6.9569 13.8002 6.50676C14.2503 6.05662 14.8108 5.83204 15.4817 5.83301H19.5198C20.1906 5.83301 20.7511 6.05759 21.2013 6.50676C21.6514 6.95593 21.876 7.51641 21.875 8.18822V10.208H28.2698C28.9406 10.208 29.5006 10.4331 29.9498 10.8832C30.399 11.3334 30.624 11.8938 30.625 12.5647V28.2695C30.625 28.9403 30.3999 29.5008 29.9498 29.9509C29.4997 30.4011 28.9397 30.6256 28.2698 30.6247H6.73167ZM6.73167 29.1663H28.2698C28.4934 29.1663 28.699 29.073 28.8867 28.8863C29.0743 28.6997 29.1676 28.4936 29.1667 28.268V12.5647C29.1667 12.3401 29.0733 12.134 28.8867 11.9463C28.7 11.7587 28.4944 11.6654 28.2698 11.6663H6.73021C6.5066 11.6663 6.30097 11.7597 6.11333 11.9463C5.92569 12.133 5.83236 12.3391 5.83333 12.5647V28.2695C5.83333 28.4931 5.92667 28.6987 6.11333 28.8863C6.3 29.074 6.50562 29.1673 6.73021 29.1663M14.5833 10.208H20.4167V8.18822C20.4167 7.96461 20.3233 7.75898 20.1367 7.57134C19.95 7.38371 19.7444 7.29037 19.5198 7.29134H15.4802C15.2566 7.29134 15.051 7.38468 14.8633 7.57134C14.6757 7.75801 14.5824 7.96364 14.5833 8.18822V10.208Z" fill="#272727"/>
</svg>
