<svg width="35" height="35" viewBox="0 0 35 35" fill="none" xmlns="http://www.w3.org/2000/svg">
<path d="M28.6744 8.00562H6.32544C5.11732 8.00562 4.13794 8.98499 4.13794 10.1931V24.8078C4.13794 26.0159 5.11732 26.9953 6.32544 26.9953H28.6744C29.8825 26.9953 30.8619 26.0159 30.8619 24.8078V10.1931C30.8619 8.98499 29.8825 8.00562 28.6744 8.00562Z" stroke="#272727" stroke-linecap="round" stroke-linejoin="round"/>
<path d="M10.8195 18.2656C12.2543 18.2656 13.4175 17.1024 13.4175 15.6676C13.4175 14.2328 12.2543 13.0696 10.8195 13.0696C9.38461 13.0696 8.22144 14.2328 8.22144 15.6676C8.22144 17.1024 9.38461 18.2656 10.8195 18.2656Z" stroke="#272727" stroke-linecap="round" stroke-linejoin="round"/>
<path d="M20.9337 15.2031H26.0371M20.9337 20.214H26.0371M20.9337 17.7085H27.9855M7.53087 22.6734H14.6643C14.7929 22.6738 14.9188 22.6372 15.0272 22.568C15.1355 22.4988 15.2217 22.4 15.2755 22.2832C15.3293 22.1664 15.3484 22.0367 15.3305 21.9094C15.3126 21.7821 15.2586 21.6626 15.1747 21.5651C14.6847 20.955 14.0639 20.4627 13.3583 20.1244C12.6527 19.7861 11.8801 19.6105 11.0976 19.6105C10.3151 19.6105 9.5425 19.7861 8.83686 20.1244C8.13123 20.4627 7.51051 20.955 7.02045 21.5651C6.93661 21.6626 6.88253 21.7821 6.86467 21.9094C6.8468 22.0367 6.86589 22.1664 6.91966 22.2832C6.97344 22.4 7.05964 22.4988 7.168 22.568C7.27636 22.6372 7.40231 22.6738 7.53087 22.6734Z" stroke="#272727" stroke-linecap="round" stroke-linejoin="round"/>
</svg>
