<svg width="393" height="814" viewBox="0 0 393 814" fill="none" xmlns="http://www.w3.org/2000/svg">
<path d="M345.302 209.628C346.132 207.838 340.898 182.011 338.594 167.481C337.934 163.315 334.11 160.252 330.041 160.858C328.108 161.146 326.378 162.242 325.261 163.886L321.795 168.986C318.54 173.776 313.534 177.01 307.918 177.95L301.979 178.944C296.464 179.867 290.813 179.433 285.494 177.676L272.25 173.302C264.856 170.675 260.255 163.105 261.208 155.135L261.924 149.142C262.617 143.351 261.272 137.495 258.133 132.63L252.524 123.94C247.142 115.6 244.182 105.86 243.989 95.8584L243.89 90.7428C243.76 84.0106 242.6 77.3413 240.451 70.9791C236.867 60.3665 230.634 50.9042 222.374 43.5363L217.116 38.8464C216.802 38.5663 216.515 38.2557 216.259 37.9192C213.006 33.646 215.819 27.3863 221.098 27.153L245.484 26.0753C246.479 26.0313 247.474 26.0675 248.46 26.1828M248.46 26.1828L256.871 42.4211C258.252 45.0878 260.814 46.8951 263.735 47.263L264.496 47.3588C268.362 47.8457 272.017 45.4376 273.196 41.6275C274.6 37.0905 272.009 32.2732 267.521 31.0739L251.105 26.688C250.235 26.4556 249.351 26.2869 248.46 26.1828ZM248.46 26.1828L242.972 15.5857C240.751 10.8026 244.679 5.42863 249.775 6.27825L273.346 10.2087L286.892 11.9149C297.503 13.2515 308.269 11.637 318.064 7.24028C324.333 4.42643 331.027 2.74032 337.853 2.25567L339.14 2.16424C350.872 1.33124 362.612 3.67721 373.183 8.96713L377.079 10.9171C381.822 13.2909 386.33 16.1271 390.572 19.3483C397.444 24.5659 405.608 30.6525 407.197 31.4278C408.079 31.8582 410.736 33.3458 413.978 35.1914C423.173 40.4259 433.485 43.275 444 43.329M344.232 201.097C346.361 221.13 346.427 251.146 345.285 278.081M345.285 278.081C343.988 308.677 341.134 335.298 337.979 338.799C325.953 352.142 292.56 353.852 266.161 352.869C246.343 352.131 232.509 333.65 234.969 313.453C236.949 297.195 248.846 284.771 263.569 281.637M345.285 278.081C338.96 268.35 330.355 260.142 319.984 254.349L316.282 252.28C313.701 250.838 310.96 249.721 308.118 248.951L303.004 247.566C285.764 242.897 268.186 253.825 264.235 271.67C263.511 274.94 263.287 278.303 263.569 281.637M345.285 278.081C352.989 289.935 357.308 304.05 357.308 318.814V331.385C357.308 351.01 350.079 367.18 332.365 374.574C320.284 379.617 308.417 386.48 308.417 397.147C308.417 414.621 339.468 433.58 335.901 450.667L335.423 452.958C335.232 453.87 334.977 454.766 334.657 455.64L321.492 491.671C315.567 512.957 316.046 535.583 322.866 556.584L326.04 566.356L335.137 589.696L340.877 604.252C343.487 610.872 345.512 617.719 346.926 624.711L351.227 645.981C355.102 665.139 350.951 685.086 339.789 700.947L324.34 722.902M324.34 722.902L319.955 729.133C304.926 750.491 274.556 752.243 257.289 732.749L248.013 722.277C239.92 713.14 239.539 699.308 247.116 689.716C257.486 676.59 277.295 677.586 286.365 691.69L295.6 706.052C301.886 715.828 312.252 722.039 323.638 722.852L324.34 722.902ZM324.34 722.902L357.603 725.277C365.781 725.861 372.931 731.148 376.061 738.925C379.487 747.439 377.424 757.24 370.88 763.544L360.669 773.379C350.778 782.906 336.848 786.622 323.689 783.246C309.996 779.732 295.514 783.905 285.604 794.22L282.942 796.99C269.787 810.682 249.95 814.835 232.228 808.598C216.387 803.023 198.18 797.415 189.031 797.415C164.882 797.415 150.551 809.071 138.42 813.071C119.585 819.279 106.825 793.094 107.627 772.808C108.404 753.163 116.583 736.832 120.811 729.731M263.569 281.637C263.622 282.254 263.691 282.87 263.778 283.484L264.882 291.286C266.787 304.755 276.679 315.573 289.656 318.377C298.851 320.379 307.233 312.498 306.095 302.922L306.009 302.195C305.723 299.795 304.861 297.506 303.499 295.532L301.941 293.274C298.083 287.684 292.198 283.919 285.608 282.826L276.709 281.35C272.209 280.604 267.774 280.741 263.569 281.637ZM-36.7276 769.37L-37.819 744.134L-43.2188 710.226L-46.4459 691.527C-48.3003 680.782 -49.1485 669.879 -48.9788 658.968C-48.7556 644.619 -46.7739 630.356 -43.0801 616.516L-38.3702 598.867L-29.5619 577.131C-28.2754 573.956 -26.7461 570.891 -24.9882 567.964C-21.6505 562.407 -17.5178 557.396 -12.7286 553.099L-9.09592 549.84C-3.45913 544.783 2.82941 540.546 9.59245 537.25L18.7861 532.77C19.684 532.332 20.6382 532.028 21.6197 531.866C25.9017 531.162 29.8788 533.21 32.0434 536.601M32.0434 536.601L29.9055 537.506C23.5316 540.205 17.5489 543.789 12.125 548.158C2.56145 555.861 -5.27516 565.706 -11.0696 576.675C-12.2615 578.932 -13.1763 580.978 -13.7912 583.393C-16.0319 592.197 -32.964 643.027 -33.1045 664.32C-33.1225 667.05 -38.6168 696.816 -21.7087 702.325C-11.5639 705.631 -7.26187 704.051 14.2469 694.1C18.0672 692.333 39.877 678.349 47.4635 666.621C49.176 663.973 49.6484 660.764 49.7965 657.59C50.1441 650.145 48.1555 642.782 44.1233 636.583L33.9898 621.003C30.9551 616.338 28.6276 611.227 27.087 605.844L26.8271 604.936C23.4223 593.042 24.1998 580.298 29.0236 568.932L31.1432 563.938C32.1107 561.658 32.687 559.224 32.8467 556.743L33.7191 543.181C33.8763 540.738 33.2341 538.466 32.0434 536.601ZM32.0434 536.601L35.4661 535.152C42.7476 532.069 50.3213 529.771 58.0654 528.294L73.6701 525.317C77.593 524.569 81.619 524.596 85.532 525.396C93.0998 526.945 99.8457 531.302 104.48 537.635L107.218 541.378C115.991 553.367 130.063 560.008 144.642 559.038L150.015 558.681L187.357 555.66L198.777 553.957C199.665 553.825 200.561 553.766 201.458 553.779C211.269 553.932 218.887 562.607 218.017 572.639L216.729 587.501L216.415 589.115C212.825 607.602 203.959 624.576 190.945 637.878C185.335 643.612 179.032 648.583 172.19 652.671L151.31 665.146L148.331 667.188C139.666 673.125 134.883 683.471 135.883 694.114C136.437 700.009 135.221 705.937 132.398 711.101L120.002 733.778" stroke="url(#paint0_angular_694_939)" stroke-opacity="0.15" stroke-width="3" stroke-linecap="round"/>
<defs>
<radialGradient id="paint0_angular_694_939" cx="0" cy="0" r="1" gradientUnits="userSpaceOnUse" gradientTransform="translate(197.5 408) rotate(90) scale(406 246.5)">
<stop offset="0.159" stop-color="#F6BE2E"/>
<stop offset="0.384" stop-color="#99E320"/>
<stop offset="0.604" stop-color="#33CAD4"/>
<stop offset="0.754" stop-color="#FF9EAA"/>
<stop offset="0.9999" stop-color="#C149C3"/>
</radialGradient>
</defs>
</svg>
