<svg width="35" height="35" viewBox="0 0 35 35" fill="none" xmlns="http://www.w3.org/2000/svg">
<path d="M17.5044 30.625C15.6902 30.625 13.984 30.2803 12.3856 29.591C10.7883 28.9027 9.39847 27.9679 8.21625 26.7867C7.03403 25.6054 6.09826 24.2161 5.40896 22.6188C4.71965 21.0214 4.375 19.3151 4.375 17.5C4.375 15.6819 4.71576 13.981 5.39729 12.3973C6.07882 10.8135 7.01993 9.42132 8.22063 8.22063L9.25167 9.25167C8.18222 10.3211 7.34514 11.5578 6.74042 12.9617C6.13569 14.3656 5.83333 15.8783 5.83333 17.5C5.83333 20.7569 6.96354 23.5156 9.22396 25.776C11.4844 28.0365 14.2431 29.1667 17.5 29.1667C20.7569 29.1667 23.5156 28.0365 25.776 25.776C28.0365 23.5156 29.1667 20.7569 29.1667 17.5C29.1667 15.8715 28.8643 14.3568 28.2596 12.9558C27.6549 11.5558 26.8178 10.3211 25.7483 9.25167L26.7808 8.21917C27.9806 9.41986 28.9212 10.8126 29.6027 12.3973C30.2842 13.982 30.625 15.6868 30.625 17.5117C30.625 19.3161 30.2808 21.017 29.5925 22.6144C28.9032 24.2117 27.9679 25.6015 26.7867 26.7837C25.6054 27.966 24.2171 28.9017 22.6217 29.591C21.0263 30.2803 19.3205 30.625 17.5044 30.625ZM16.7708 18.9583V4.375H18.2292V18.9583H16.7708Z" fill="#9534D0"/>
</svg>
