<svg width="27" height="27" viewBox="0 0 27 27" fill="none" xmlns="http://www.w3.org/2000/svg">
<path d="M19.9112 6.14513C19.8734 3.96248 18.6926 1.73223 16.2975 1.32564L19.9112 6.14513ZM19.9112 6.14513C19.93 7.22724 19.6598 8.2173 19.1772 8.87655M19.9112 6.14513L19.1772 8.87655M19.1772 8.87655C18.7129 9.51095 18.0524 9.84939 17.1681 9.6995M19.1772 8.87655L17.1681 9.6995M17.1681 9.6995C16.1728 9.53023 15.371 8.60273 15.2475 7.41234M17.1681 9.6995L15.2475 7.41234M15.2475 7.41234C15.1769 6.73105 15.0634 5.02399 15.2213 3.54608C15.3011 2.79896 15.4451 2.16692 15.6621 1.75694C15.7684 1.55592 15.8756 1.44055 15.97 1.38065C16.0525 1.3283 16.1509 1.30088 16.2973 1.3256L15.2475 7.41234ZM11.0303 1.38055C10.9478 1.32822 10.8493 1.3008 10.7028 1.3256L11.0303 1.38055ZM11.0303 1.38055C11.1247 1.4404 11.2319 1.55572 11.3382 1.75667M11.0303 1.38055L11.3382 1.75667M11.3382 1.75667C11.5552 2.16654 11.6991 2.7985 11.7789 3.54559M11.3382 1.75667L11.7789 3.54559M11.7789 3.54559C11.9368 5.02342 11.8231 6.73047 11.7526 7.4118M11.7789 3.54559L11.7526 7.4118M11.7526 7.4118C11.629 8.60298 10.828 9.52979 9.83293 9.69898L11.7526 7.4118ZM13.4988 12.0954H13.5C14.7838 12.0954 15.8578 12.9649 16.1604 14.1339L16.1605 14.1343C16.2453 14.4609 16.3106 14.7908 16.3788 15.1355C16.3977 15.2313 16.4169 15.3283 16.4368 15.4267C16.5263 15.8686 16.6285 16.3301 16.7856 16.7741C17.1076 17.6843 17.6625 18.526 18.7962 19.0914L18.8264 19.1065L18.8583 19.1174C19.7087 19.4067 20.1985 19.7038 20.4938 20.0976C20.7863 20.4875 20.9472 21.0523 20.9472 22.0163C20.9472 23.387 19.7455 24.8768 18.2301 25.059L18.2228 25.0599L18.2156 25.061C16.3398 25.3427 14.9053 24.9745 13.7471 24.3143L13.4995 24.1732L13.2519 24.3143C12.0935 24.9746 10.6585 25.3432 8.78579 25.0611L8.77839 25.0599L8.77096 25.059C8.02482 24.9694 7.34333 24.5605 6.84369 23.9813C6.34216 23.4 6.05338 22.6812 6.05338 22.0163C6.05338 21.0819 6.22253 20.5036 6.52812 20.098C6.8359 19.6894 7.33938 19.3791 8.17771 19.1059L8.21518 19.0937L8.25027 19.0758C9.47376 18.4507 10.0184 17.5688 10.3087 16.6349C10.4489 16.1838 10.5302 15.7198 10.6041 15.2903L10.6112 15.2491C10.684 14.8251 10.751 14.4352 10.8587 14.0637C11.0267 13.4944 11.3747 12.9949 11.8505 12.6401C12.3265 12.285 12.9049 12.0939 13.4988 12.0954ZM20.3764 12.9759L20.3868 12.9639L20.3965 12.9512C20.7031 12.5506 21.3831 11.9032 22.0572 11.4132C22.3939 11.1685 22.7018 10.9832 22.9392 10.8862C23.0324 10.8481 23.0986 10.8304 23.1407 10.8233C23.5189 11.1917 23.7513 11.8478 23.7933 12.6908C23.8364 13.5573 23.6712 14.5237 23.3579 15.3338L23.3578 15.3338L23.3535 15.3456C23.0643 16.1537 22.39 16.666 21.6573 16.666C20.7017 16.666 19.8207 15.7639 19.8207 14.5152C19.8207 13.906 20.0385 13.3634 20.3764 12.9759ZM23.0848 10.7718L23.085 10.772L23.0848 10.7718ZM3.64704 15.3456L3.6472 15.3456L3.64255 15.3336C3.32884 14.5236 3.16363 13.5573 3.20669 12.6908C3.24858 11.8479 3.48083 11.1918 3.85838 10.8232C3.90055 10.8303 3.96697 10.848 4.06033 10.8862C4.29782 10.9832 4.60582 11.1685 4.9425 11.4132C5.61661 11.9032 6.29669 12.5506 6.60363 12.9513L6.61327 12.9639L6.62369 12.9759C6.96133 13.3632 7.17882 13.9058 7.17882 14.5152C7.17882 15.7641 6.29877 16.666 5.34224 16.666C4.61027 16.666 3.9364 16.1539 3.64704 15.3456ZM9.8328 9.699C8.94822 9.84907 8.28768 9.51071 7.82329 8.87649C7.34066 8.21736 7.07043 7.22736 7.08916 6.14525C7.12694 3.96255 8.30782 1.73216 10.7027 1.32562L9.8328 9.699Z" stroke="black"/>
</svg>
