<svg width="62" height="10" viewBox="0 0 62 10" fill="none" xmlns="http://www.w3.org/2000/svg">
<path d="M5.9499 4.2C6.5999 4.2 6.9999 3.25 6.9999 2.65C6.9999 2.15 6.7499 1.55 6.2499 1.55C5.5999 1.55 5.1999 2.5 5.1999 3.1C5.1999 3.6 5.4499 4.2 5.9499 4.2ZM4.0499 4.2C4.5499 4.2 4.7999 3.6 4.7999 3.1C4.7999 2.45 4.3999 1.5 3.7499 1.5C3.2499 1.5 2.9999 2.1 2.9999 2.6C2.9499 3.25 3.3499 4.2 4.0499 4.2ZM7.7499 3.7C7.0999 3.7 6.6499 4.6 6.6499 5.25C6.6499 5.7 6.8499 6.15 7.2999 6.15C7.9499 6.15 8.3999 5.25 8.3999 4.6C8.3999 4.15 8.1499 3.7 7.7499 3.7ZM3.3999 5.25C3.3999 4.6 2.8999 3.7 2.2999 3.7C1.8499 3.7 1.6499 4.15 1.6499 4.6C1.6499 5.25 2.1499 6.15 2.7499 6.15C3.1999 6.15 3.3999 5.7 3.3999 5.25ZM4.9999 5.15C3.9999 5.15 2.6499 6.75 2.6499 7.85C2.6499 8.35 2.9999 8.5 3.3999 8.5C3.9999 8.5 4.4499 8.1 4.9999 8.1C5.4999 8.1 5.9499 8.5 6.4999 8.5C6.8999 8.5 7.3499 8.4 7.3499 7.85C7.3499 6.75 5.9999 5.15 4.9999 5.15Z" fill="#F6BE2E"/>
<path d="M18.9499 4.2C19.5999 4.2 19.9999 3.25 19.9999 2.65C19.9999 2.15 19.7499 1.55 19.2499 1.55C18.5999 1.55 18.1999 2.5 18.1999 3.1C18.1999 3.6 18.4499 4.2 18.9499 4.2ZM17.0499 4.2C17.5499 4.2 17.7999 3.6 17.7999 3.1C17.7999 2.45 17.3999 1.5 16.7499 1.5C16.2499 1.5 15.9999 2.1 15.9999 2.6C15.9499 3.25 16.3499 4.2 17.0499 4.2ZM20.7499 3.7C20.0999 3.7 19.6499 4.6 19.6499 5.25C19.6499 5.7 19.8499 6.15 20.2999 6.15C20.9499 6.15 21.3999 5.25 21.3999 4.6C21.3999 4.15 21.1499 3.7 20.7499 3.7ZM16.3999 5.25C16.3999 4.6 15.8999 3.7 15.2999 3.7C14.8499 3.7 14.6499 4.15 14.6499 4.6C14.6499 5.25 15.1499 6.15 15.7499 6.15C16.1999 6.15 16.3999 5.7 16.3999 5.25ZM17.9999 5.15C16.9999 5.15 15.6499 6.75 15.6499 7.85C15.6499 8.35 15.9999 8.5 16.3999 8.5C16.9999 8.5 17.4499 8.1 17.9999 8.1C18.4999 8.1 18.9499 8.5 19.4999 8.5C19.8999 8.5 20.3499 8.4 20.3499 7.85C20.3499 6.75 18.9999 5.15 17.9999 5.15Z" fill="#F6BE2E"/>
<path d="M31.9499 4.2C32.5999 4.2 32.9999 3.25 32.9999 2.65C32.9999 2.15 32.7499 1.55 32.2499 1.55C31.5999 1.55 31.1999 2.5 31.1999 3.1C31.1999 3.6 31.4499 4.2 31.9499 4.2ZM30.0499 4.2C30.5499 4.2 30.7999 3.6 30.7999 3.1C30.7999 2.45 30.3999 1.5 29.7499 1.5C29.2499 1.5 28.9999 2.1 28.9999 2.6C28.9499 3.25 29.3499 4.2 30.0499 4.2ZM33.7499 3.7C33.0999 3.7 32.6499 4.6 32.6499 5.25C32.6499 5.7 32.8499 6.15 33.2999 6.15C33.9499 6.15 34.3999 5.25 34.3999 4.6C34.3999 4.15 34.1499 3.7 33.7499 3.7ZM29.3999 5.25C29.3999 4.6 28.8999 3.7 28.2999 3.7C27.8499 3.7 27.6499 4.15 27.6499 4.6C27.6499 5.25 28.1499 6.15 28.7499 6.15C29.1999 6.15 29.3999 5.7 29.3999 5.25ZM30.9999 5.15C29.9999 5.15 28.6499 6.75 28.6499 7.85C28.6499 8.35 28.9999 8.5 29.3999 8.5C29.9999 8.5 30.4499 8.1 30.9999 8.1C31.4999 8.1 31.9499 8.5 32.4999 8.5C32.8999 8.5 33.3499 8.4 33.3499 7.85C33.3499 6.75 31.9999 5.15 30.9999 5.15Z" fill="#F6BE2E"/>
<path d="M44.9499 4.2C45.5999 4.2 45.9999 3.25 45.9999 2.65C45.9999 2.15 45.7499 1.55 45.2499 1.55C44.5999 1.55 44.1999 2.5 44.1999 3.1C44.1999 3.6 44.4499 4.2 44.9499 4.2ZM43.0499 4.2C43.5499 4.2 43.7999 3.6 43.7999 3.1C43.7999 2.45 43.3999 1.5 42.7499 1.5C42.2499 1.5 41.9999 2.1 41.9999 2.6C41.9499 3.25 42.3499 4.2 43.0499 4.2ZM46.7499 3.7C46.0999 3.7 45.6499 4.6 45.6499 5.25C45.6499 5.7 45.8499 6.15 46.2999 6.15C46.9499 6.15 47.3999 5.25 47.3999 4.6C47.3999 4.15 47.1499 3.7 46.7499 3.7ZM42.3999 5.25C42.3999 4.6 41.8999 3.7 41.2999 3.7C40.8499 3.7 40.6499 4.15 40.6499 4.6C40.6499 5.25 41.1499 6.15 41.7499 6.15C42.1999 6.15 42.3999 5.7 42.3999 5.25ZM43.9999 5.15C42.9999 5.15 41.6499 6.75 41.6499 7.85C41.6499 8.35 41.9999 8.5 42.3999 8.5C42.9999 8.5 43.4499 8.1 43.9999 8.1C44.4999 8.1 44.9499 8.5 45.4999 8.5C45.8999 8.5 46.3499 8.4 46.3499 7.85C46.3499 6.75 44.9999 5.15 43.9999 5.15Z" fill="#F6BE2E"/>
<path d="M57.9499 4.2C58.5999 4.2 58.9999 3.25 58.9999 2.65C58.9999 2.15 58.7499 1.55 58.2499 1.55C57.5999 1.55 57.1999 2.5 57.1999 3.1C57.1999 3.6 57.4499 4.2 57.9499 4.2ZM56.0499 4.2C56.5499 4.2 56.7999 3.6 56.7999 3.1C56.7999 2.45 56.3999 1.5 55.7499 1.5C55.2499 1.5 54.9999 2.1 54.9999 2.6C54.9499 3.25 55.3499 4.2 56.0499 4.2ZM59.7499 3.7C59.0999 3.7 58.6499 4.6 58.6499 5.25C58.6499 5.7 58.8499 6.15 59.2999 6.15C59.9499 6.15 60.3999 5.25 60.3999 4.6C60.3999 4.15 60.1499 3.7 59.7499 3.7ZM55.3999 5.25C55.3999 4.6 54.8999 3.7 54.2999 3.7C53.8499 3.7 53.6499 4.15 53.6499 4.6C53.6499 5.25 54.1499 6.15 54.7499 6.15C55.1999 6.15 55.3999 5.7 55.3999 5.25ZM56.9999 5.15C55.9999 5.15 54.6499 6.75 54.6499 7.85C54.6499 8.35 54.9999 8.5 55.3999 8.5C55.9999 8.5 56.4499 8.1 56.9999 8.1C57.4999 8.1 57.9499 8.5 58.4999 8.5C58.8999 8.5 59.3499 8.4 59.3499 7.85C59.3499 6.75 57.9999 5.15 56.9999 5.15Z" fill="#F6BE2E"/>
</svg>
