<svg width="35" height="35" viewBox="0 0 35 35" fill="none" xmlns="http://www.w3.org/2000/svg">
<path d="M17.5 18.4334C16.9792 18.4354 16.4734 18.6085 16.0605 18.9259C15.6476 19.2433 15.3503 19.6876 15.2145 20.1904C15.0786 20.6933 15.1117 21.2268 15.3086 21.709C15.5054 22.1912 15.8553 22.5954 16.3042 22.8594V26.2501H18.725V22.8594C19.0802 22.6493 19.375 22.3509 19.5807 21.9931C19.7865 21.6354 19.8961 21.2304 19.899 20.8178C19.899 20.5034 19.8368 20.1922 19.7161 19.9019C19.5954 19.6117 19.4184 19.3482 19.1955 19.1266C18.9725 18.905 18.7079 18.7297 18.417 18.6107C18.126 18.4917 17.8144 18.4315 17.5 18.4334Z" stroke="#C149C3" stroke-linecap="round" stroke-linejoin="round"/>
<path d="M26.4614 12.9573H8.53123C6.79153 12.9573 5.38123 14.3676 5.38123 16.1073V28.5687C5.38123 30.3084 6.79153 31.7187 8.53123 31.7187H26.4614C28.2011 31.7187 29.6114 30.3084 29.6114 28.5687V16.1073C29.6114 14.3676 28.2011 12.9573 26.4614 12.9573Z" stroke="#C149C3" stroke-linecap="round" stroke-linejoin="round"/>
<path d="M9.73438 12.9573V11.0542C9.73438 8.99266 10.5533 7.01559 12.011 5.55788C13.4687 4.10018 15.4458 3.28125 17.5073 3.28125C19.5688 3.28125 21.5459 4.10018 23.0036 5.55788C24.4613 7.01559 25.2802 8.99266 25.2802 11.0542V12.9573" stroke="#C149C3" stroke-linecap="round" stroke-linejoin="round"/>
</svg>
