<svg width="18" height="18" viewBox="0 0 18 18" fill="none" xmlns="http://www.w3.org/2000/svg">
<path d="M13.9646 9.51276L7.94386 15.689C7.89429 15.7387 7.85509 15.7978 7.82851 15.8629C7.80194 15.9279 7.78852 15.9975 7.78904 16.0678C7.78956 16.138 7.80401 16.2075 7.83155 16.2721C7.85908 16.3367 7.89916 16.3952 7.94946 16.4443C7.99976 16.4933 8.05928 16.5319 8.12459 16.5577C8.18989 16.5836 8.25968 16.5963 8.32991 16.595C8.40015 16.5937 8.46943 16.5785 8.53375 16.5503C8.59808 16.5221 8.65616 16.4814 8.70465 16.4306L15.0856 9.88423C15.1821 9.78514 15.2362 9.65227 15.2364 9.5139C15.2365 9.37553 15.1826 9.24257 15.0862 9.14331L8.71712 2.58549C8.66873 2.53457 8.61071 2.49377 8.54644 2.46543C8.48217 2.43708 8.41291 2.42177 8.34268 2.42037C8.27245 2.41897 8.20264 2.43151 8.13729 2.45727C8.07194 2.48302 8.01234 2.52149 7.96195 2.57043C7.91157 2.61937 7.87138 2.67782 7.84373 2.74239C7.81608 2.80696 7.80151 2.87638 7.80086 2.94662C7.80022 3.01686 7.81351 3.08653 7.83996 3.15161C7.86642 3.21668 7.90552 3.27586 7.955 3.32572L13.9646 9.51276Z" fill="#9534D0"/>
</svg>
