<svg width="35" height="35" viewBox="0 0 35 35" fill="none" xmlns="http://www.w3.org/2000/svg">
<path d="M18.9584 29.5604L18.8738 26.25H16.7709C13.7307 26.25 11.148 25.1874 9.02275 23.0621C6.89747 20.9368 5.83435 18.3536 5.83337 15.3125C5.8324 12.2714 6.89553 9.68868 9.02275 7.56437C11.15 5.44007 13.7327 4.37694 16.7709 4.375C18.2914 4.375 19.7148 4.65986 21.0409 5.22958C22.367 5.79833 23.5254 6.57806 24.5161 7.56875C25.5068 8.55944 26.2865 9.71736 26.8553 11.0425C27.424 12.3696 27.7084 13.7929 27.7084 15.3125C27.7084 16.799 27.4901 18.2267 27.0536 19.5956C26.6171 20.9645 26.0133 22.2581 25.2423 23.4762C24.4714 24.6944 23.5478 25.8174 22.4715 26.845C21.3953 27.8726 20.2242 28.7773 18.9584 29.559M20.4167 26.7604C22.1424 25.3021 23.5463 23.5949 24.6284 21.6388C25.7105 19.6826 26.251 17.5739 26.25 15.3125C26.25 12.6632 25.3323 10.4213 23.4967 8.58667C21.6612 6.75208 19.4192 5.83431 16.7709 5.83333C14.1225 5.83236 11.8806 6.75014 10.045 8.58667C8.20949 10.4232 7.29171 12.6651 7.29171 15.3125C7.29171 17.9599 8.20949 20.2023 10.045 22.0398C11.8806 23.8773 14.1225 24.7946 16.7709 24.7917H20.4167V26.7604ZM16.819 22.7077C17.1204 22.7077 17.3746 22.6042 17.5817 22.3971C17.7888 22.19 17.8923 21.9358 17.8923 21.6344C17.8923 21.333 17.7888 21.0788 17.5817 20.8717C17.3746 20.6646 17.1204 20.5606 16.819 20.5596C16.5176 20.5596 16.2634 20.6636 16.0563 20.8717C15.8482 21.0788 15.7442 21.333 15.7442 21.6344C15.7442 21.9358 15.8477 22.19 16.0548 22.3971C16.2629 22.6042 16.5176 22.7077 16.819 22.7077ZM16.1817 18.4421H17.4723C17.5093 17.8442 17.624 17.3712 17.8165 17.0231C18.009 16.676 18.4659 16.1413 19.1873 15.419C19.6073 15.0009 19.9398 14.5736 20.1848 14.1371C20.4289 13.7015 20.5509 13.2018 20.5509 12.6379C20.5509 11.585 20.1877 10.7581 19.4615 10.1573C18.7352 9.55646 17.8568 9.25556 16.8263 9.25458C15.925 9.25458 15.1618 9.50104 14.5367 9.99396C13.9096 10.4869 13.4502 11.0746 13.1586 11.7571L14.3588 12.2223C14.5552 11.7906 14.842 11.3974 15.2192 11.0425C15.5974 10.6886 16.1331 10.5117 16.8263 10.5117C17.6507 10.5117 18.2598 10.7358 18.6536 11.184C19.0473 11.6331 19.2442 12.1231 19.2442 12.654C19.2442 13.142 19.1178 13.5547 18.865 13.8921C18.6132 14.2294 18.289 14.5965 17.8923 14.9931C17.1914 15.6105 16.731 16.1647 16.5113 16.6556C16.2916 17.1466 16.1817 17.7421 16.1817 18.4421Z" fill="#C149C3"/>
</svg>
