<svg width="35" height="35" viewBox="0 0 35 35" fill="none" xmlns="http://www.w3.org/2000/svg">
<path d="M17.5 22.4219C16.5265 22.4219 15.5749 22.1332 14.7656 21.5924C13.9562 21.0516 13.3253 20.2829 12.9528 19.3835C12.5803 18.4842 12.4828 17.4945 12.6727 16.5398C12.8626 15.585 13.3314 14.708 14.0197 14.0197C14.708 13.3314 15.585 12.8626 16.5398 12.6727C17.4945 12.4828 18.4842 12.5803 19.3835 12.9528C20.2829 13.3253 21.0516 13.9562 21.5924 14.7656C22.1332 15.575 22.4219 16.5265 22.4219 17.5C22.4219 18.8054 21.9033 20.0573 20.9803 20.9803C20.0573 21.9033 18.8054 22.4219 17.5 22.4219ZM17.5 13.6719C16.7429 13.6719 16.0027 13.8964 15.3732 14.317C14.7437 14.7377 14.253 15.3355 13.9633 16.035C13.6735 16.7345 13.5977 17.5042 13.7454 18.2468C13.8931 18.9894 14.2577 19.6715 14.7931 20.2069C15.3285 20.7423 16.0106 21.1069 16.7532 21.2546C17.4958 21.4023 18.2655 21.3265 18.965 21.0367C19.6645 20.747 20.2623 20.2563 20.683 19.6268C21.1036 18.9973 21.3281 18.2571 21.3281 17.5C21.3281 16.4847 20.9248 15.511 20.2069 14.7931C19.489 14.0752 18.5153 13.6719 17.5 13.6719ZM2.1875 8.20312H32.8125C32.9575 8.20312 33.0966 8.26074 33.1992 8.3633C33.3018 8.46586 33.3594 8.60496 33.3594 8.75V26.25C33.3594 26.395 33.3018 26.5341 33.1992 26.6367C33.0966 26.7393 32.9575 26.7969 32.8125 26.7969H2.1875C2.04246 26.7969 1.90336 26.7393 1.8008 26.6367C1.69824 26.5341 1.64062 26.395 1.64062 26.25V8.75C1.64062 8.60496 1.69824 8.46586 1.8008 8.3633C1.90336 8.26074 2.04246 8.20312 2.1875 8.20312ZM32.2656 14.6645C30.9604 14.3572 29.7667 13.6922 28.8185 12.744C27.8703 11.7958 27.2053 10.6021 26.898 9.29688H8.10195C7.79471 10.6021 7.12966 11.7958 6.1815 12.744C5.23334 13.6922 4.03961 14.3572 2.73438 14.6645V20.3355C4.03961 20.6428 5.23334 21.3078 6.1815 22.256C7.12966 23.2042 7.79471 24.3979 8.10195 25.7031H26.898C27.2053 24.3979 27.8703 23.2042 28.8185 22.256C29.7667 21.3078 30.9604 20.6428 32.2656 20.3355V14.6645ZM2.73438 13.5352C3.74477 13.251 4.6652 12.712 5.40737 11.9699C6.14954 11.2277 6.68853 10.3073 6.97266 9.29688H2.73438V13.5352ZM28.0273 9.29688C28.3115 10.3073 28.8505 11.2277 29.5926 11.9699C30.3348 12.712 31.2552 13.251 32.2656 13.5352V9.29688H28.0273ZM32.2656 21.4648C31.2552 21.749 30.3348 22.288 29.5926 23.0301C28.8505 23.7723 28.3115 24.6927 28.0273 25.7031H32.2656V21.4648ZM6.97266 25.7031C6.68853 24.6927 6.14954 23.7723 5.40737 23.0301C4.6652 22.288 3.74477 21.749 2.73438 21.4648V25.7031H6.97266Z" fill="#C149C3"/>
</svg>
