<svg width="35" height="35" viewBox="0 0 35 35" fill="none" xmlns="http://www.w3.org/2000/svg">
<g clip-path="url(#clip0_742_1112)">
<path fill-rule="evenodd" clip-rule="evenodd" d="M5.83333 4.375C5.44656 4.375 5.07563 4.52865 4.80214 4.80214C4.52865 5.07563 4.375 5.44656 4.375 5.83333V24.7917C4.375 25.1784 4.52865 25.5494 4.80214 25.8229C5.07563 26.0964 5.44656 26.25 5.83333 26.25H16.7708V29.1667H11.6667V30.625H23.3333V29.1667H18.2292V26.25H29.1667C29.5534 26.25 29.9244 26.0964 30.1979 25.8229C30.4714 25.5494 30.625 25.1784 30.625 24.7917V5.83333C30.625 5.44656 30.4714 5.07563 30.1979 4.80214C29.9244 4.52865 29.5534 4.375 29.1667 4.375H5.83333ZM8.75 22.8813V22.3956C8.75 20.5596 11.4698 18.8336 14.097 18.235C14.5235 18.138 14.4754 18.7527 14.5833 18.9583H20.2949C20.4057 18.7476 20.6588 18.1796 20.903 18.235C21.4521 18.3604 22.0048 18.5347 22.5364 18.7491L22.5531 18.741L22.5582 18.7513L22.5619 18.7585C24.562 19.5723 26.25 20.9504 26.25 22.3956V24.7917H28.4375V7.29167H6.5625V24.7917H8.75V22.8813ZM11.2984 21.0292C11.7198 20.7271 12.1708 20.4686 12.6445 20.2577C12.663 20.6305 12.7241 20.9999 12.8268 21.3587L12.8311 21.3719C12.5405 21.5557 12.3242 21.8364 12.2205 22.1642C12.1167 22.4921 12.1321 22.8461 12.264 23.1636C12.3959 23.4812 12.6358 23.742 12.9413 23.8999C13.2468 24.0577 13.5983 24.1026 13.9336 24.0264C14.269 23.9503 14.5667 23.7581 14.7741 23.4838C14.9815 23.2095 15.0853 22.8708 15.0671 22.5274C15.049 22.1839 14.9101 21.858 14.6749 21.6071C14.4397 21.3562 14.1235 21.1964 13.782 21.156L13.7601 21.086C13.6612 20.7364 13.6111 20.3747 13.6114 20.0113L13.7032 20.1855H21.175L21.3427 19.8669C21.473 19.9092 21.6028 19.9539 21.7321 20.001C21.7357 20.1615 21.7226 20.3452 21.6971 20.5333C21.6692 20.7407 21.6248 20.9455 21.5644 21.1458H20.903C20.8127 21.146 20.7242 21.1713 20.6473 21.2188C20.5705 21.2663 20.5083 21.3342 20.4677 21.4149L19.9821 22.3869C19.9492 22.4547 19.9318 22.5289 19.931 22.6042V23.5761C19.931 23.8452 20.1483 24.0625 20.4167 24.0625H21.3886V23.0905H20.903V22.7186L21.2034 22.1178H22.5466L22.847 22.7186V23.0905H22.3614V24.0625H23.3333C23.3972 24.0625 23.4604 24.0499 23.5195 24.0255C23.5785 24.001 23.6321 23.9652 23.6772 23.9201C23.7224 23.8749 23.7582 23.8213 23.7827 23.7623C23.8071 23.7033 23.8197 23.64 23.8197 23.5761V22.6042C23.8189 22.5289 23.8015 22.4547 23.7686 22.3869L23.2823 21.4142C23.2416 21.3336 23.1794 21.2659 23.1025 21.2185C23.0257 21.1711 22.9372 21.146 22.847 21.1458H22.5721C22.6285 20.9059 22.6675 20.6622 22.6887 20.4167C23.2801 20.7156 23.7876 21.0576 24.1617 21.4061C24.6954 21.9042 24.7917 22.2505 24.7917 22.3949V24.7917H10.2083V22.3949C10.2083 22.1951 10.4008 21.684 11.2984 21.0292ZM14.097 22.6042C14.0977 22.6685 14.0856 22.7323 14.0615 22.792C14.0375 22.8517 14.0019 22.906 13.9567 22.9519C13.9116 22.9978 13.8579 23.0343 13.7986 23.0593C13.7393 23.0843 13.6757 23.0974 13.6114 23.0978C13.547 23.0975 13.4832 23.0845 13.4239 23.0595C13.3645 23.0345 13.3107 22.998 13.2655 22.9521C13.2203 22.9063 13.1846 22.8519 13.1605 22.7922C13.1364 22.7325 13.1243 22.6686 13.125 22.6042C13.125 22.3249 13.3496 22.1105 13.6114 22.1105C13.8731 22.1105 14.097 22.3249 14.097 22.6042ZM17.5 6.5625C17.6934 6.5625 17.8789 6.48568 18.0156 6.34893C18.1523 6.21219 18.2292 6.02672 18.2292 5.83333C18.2292 5.63995 18.1523 5.45448 18.0156 5.31773C17.8789 5.18099 17.6934 5.10417 17.5 5.10417C17.3066 5.10417 17.1211 5.18099 16.9844 5.31773C16.8477 5.45448 16.7708 5.63995 16.7708 5.83333C16.7708 6.02672 16.8477 6.21219 16.9844 6.34893C17.1211 6.48568 17.3066 6.5625 17.5 6.5625Z" fill="#C149C3"/>
<path fill-rule="evenodd" clip-rule="evenodd" d="M17.5 16.0417C18.2735 16.0417 19.0154 15.7344 19.5624 15.1874C20.1094 14.6404 20.4167 13.8985 20.4167 13.125C20.4167 12.3515 20.1094 11.6096 19.5624 11.0626C19.0154 10.5156 18.2735 10.2083 17.5 10.2083C16.7265 10.2083 15.9846 10.5156 15.4376 11.0626C14.8906 11.6096 14.5833 12.3515 14.5833 13.125C14.5833 13.8985 14.8906 14.6404 15.4376 15.1874C15.9846 15.7344 16.7265 16.0417 17.5 16.0417ZM17.5 17.5C18.6603 17.5 19.7731 17.0391 20.5936 16.2186C21.4141 15.3981 21.875 14.2853 21.875 13.125C21.875 11.9647 21.4141 10.8519 20.5936 10.0314C19.7731 9.21094 18.6603 8.75 17.5 8.75C16.3397 8.75 15.2269 9.21094 14.4064 10.0314C13.5859 10.8519 13.125 11.9647 13.125 13.125C13.125 14.2853 13.5859 15.3981 14.4064 16.2186C15.2269 17.0391 16.3397 17.5 17.5 17.5Z" fill="#C149C3"/>
</g>
<defs>
<clipPath id="clip0_742_1112">
<rect width="35" height="35" fill="white"/>
</clipPath>
</defs>
</svg>
