<svg width="35" height="35" viewBox="0 0 35 35" fill="none" xmlns="http://www.w3.org/2000/svg">
<path d="M17.5 23.6688C17.708 23.6688 17.8816 23.5992 18.0206 23.4602C18.1596 23.3212 18.2291 23.1481 18.2291 22.941V16.154C18.2291 15.9469 18.1591 15.7738 18.0191 15.6348C17.8791 15.4958 17.7056 15.4258 17.4985 15.4248C17.2914 15.4238 17.1184 15.4938 16.9793 15.6348C16.8403 15.7758 16.7708 15.9488 16.7708 16.154V22.941C16.7708 23.1472 16.8408 23.3202 16.9808 23.4602C17.1208 23.6002 17.2943 23.6702 17.5014 23.6702M17.5 13.125C17.7547 13.125 17.9681 13.039 18.1402 12.8669C18.3113 12.6948 18.3968 12.4819 18.3968 12.2281C18.3968 11.9734 18.3108 11.76 18.1387 11.5879C17.9666 11.4158 17.7537 11.3303 17.5 11.3313C17.2462 11.3322 17.0333 11.4183 16.8612 11.5894C16.6891 11.7605 16.6031 11.9739 16.6031 12.2296C16.6031 12.4853 16.6891 12.6982 16.8612 12.8683C17.0333 13.0385 17.2462 13.124 17.5 13.125ZM17.5 30.3946C17.3677 30.3946 17.2282 30.3824 17.0814 30.3581C16.9346 30.3338 16.7985 30.2974 16.6731 30.2488C13.8021 29.155 11.5208 27.3 9.82913 24.6838C8.13746 22.0675 7.29163 19.2354 7.29163 16.1875V9.94146C7.29163 9.44174 7.43406 8.9916 7.71892 8.59104C8.00281 8.19049 8.37079 7.90028 8.82288 7.72042L16.676 4.80375C16.9599 4.7007 17.2345 4.64917 17.5 4.64917C17.7654 4.64917 18.0405 4.7007 18.3254 4.80375L26.177 7.72042C26.6282 7.90125 26.9961 8.19146 27.281 8.59104C27.5659 8.9916 27.7083 9.44174 27.7083 9.94146V16.1875C27.7083 19.2354 26.8625 22.0675 25.1708 24.6838C23.4791 27.3 21.1983 29.155 18.3283 30.2488C18.2009 30.2974 18.0643 30.3338 17.9185 30.3581C17.7727 30.3824 17.6332 30.3946 17.5 30.3946ZM17.5 29.0208C20.0277 28.2188 22.118 26.6146 23.7708 24.2083C25.4236 21.8021 26.25 19.1285 26.25 16.1875V9.91375C26.25 9.72709 26.1984 9.55889 26.0954 9.40917C25.9933 9.25945 25.8484 9.14764 25.6608 9.07375L17.8091 6.15709C17.7158 6.1182 17.6127 6.09875 17.5 6.09875C17.3872 6.09875 17.2841 6.1182 17.1908 6.15709L9.33913 9.07375C9.15149 9.14764 9.00663 9.25945 8.90454 9.40917C8.80149 9.55889 8.74996 9.72709 8.74996 9.91375V16.1875C8.74996 19.1285 9.57635 21.8021 11.2291 24.2083C12.8819 26.6146 14.9722 28.2188 17.5 29.0208Z" fill="#C149C3"/>
</svg>
