<svg width="35" height="35" viewBox="0 0 35 35" fill="none" xmlns="http://www.w3.org/2000/svg">
<path d="M17.5 30.625C15.6936 30.625 13.9922 30.2799 12.3958 29.5896C10.7995 28.8983 9.40917 27.9601 8.22501 26.775C7.04084 25.5899 6.10265 24.1996 5.41042 22.6042C4.7182 21.0088 4.37306 19.3074 4.37501 17.5C4.37501 15.6878 4.72015 13.9849 5.41042 12.3915C6.10167 10.797 7.03987 9.40819 8.22501 8.225C9.41015 7.04181 10.8004 6.10361 12.3958 5.41042C13.9922 4.72014 15.6936 4.375 17.5 4.375C19.3122 4.375 21.0151 4.72014 22.6086 5.41042C24.203 6.10167 25.5923 7.03986 26.7765 8.225C27.9606 9.41014 28.8983 10.799 29.5896 12.3915C30.2799 13.9859 30.625 15.6888 30.625 17.5C30.625 19.3064 30.2799 21.0078 29.5896 22.6042C28.8983 24.2006 27.9601 25.5908 26.775 26.775C25.5899 27.9592 24.2011 28.8974 22.6086 29.5896C21.0161 30.2818 19.3132 30.6269 17.5 30.625ZM17.5 29.1783C18.3556 28.0788 19.0614 26.9991 19.6175 25.9394C20.1726 24.8797 20.6242 23.6935 20.9723 22.381H14.0277C14.4137 23.7674 14.8745 24.9905 15.4102 26.0502C15.9469 27.1099 16.6435 28.1526 17.5 29.1783ZM15.6436 28.9596C14.963 28.1575 14.3417 27.1658 13.7798 25.9846C13.2179 24.8043 12.7998 23.6026 12.5256 22.3796H6.93293C7.76904 24.1928 8.95369 25.6803 10.4869 26.8421C12.0211 28.0029 13.7399 28.7087 15.6436 28.9596ZM19.3565 28.9596C21.2601 28.7087 22.979 28.0029 24.5131 26.8421C26.0463 25.6803 27.231 24.1928 28.0671 22.3796H22.4758C22.1064 23.6211 21.6412 24.832 21.0802 26.0123C20.5183 27.1935 19.9437 28.1769 19.3565 28.9596ZM6.33793 20.9227H12.2223C12.1115 20.3238 12.0337 19.7405 11.989 19.1727C11.9423 18.6059 11.919 18.0483 11.919 17.5C11.919 16.9517 11.9418 16.3941 11.9875 15.8273C12.0332 15.2605 12.111 14.6772 12.2208 14.0773H6.33938C6.18091 14.5828 6.05695 15.1336 5.96751 15.7296C5.87806 16.3246 5.83334 16.9147 5.83334 17.5C5.83334 18.0853 5.87758 18.6759 5.96605 19.2719C6.05452 19.8678 6.17848 20.4176 6.33793 20.9212M13.6806 20.9212H21.3194C21.4302 20.3233 21.508 19.7497 21.5527 19.2004C21.5994 18.6521 21.6227 18.0853 21.6227 17.5C21.6227 16.9147 21.5999 16.3479 21.5542 15.7996C21.5085 15.2512 21.4307 14.6776 21.3208 14.0788H13.6792C13.5693 14.6767 13.4915 15.2503 13.4458 15.7996C13.4001 16.3479 13.3773 16.9147 13.3773 17.5C13.3773 18.0853 13.4001 18.6521 13.4458 19.2004C13.4915 19.7488 13.5708 20.3224 13.6806 20.9212ZM22.7792 20.9212H28.6621C28.8206 20.4167 28.9445 19.8669 29.034 19.2719C29.1224 18.6759 29.1667 18.0853 29.1667 17.5C29.1667 16.9147 29.1224 16.3241 29.034 15.7281C28.9455 15.1322 28.8215 14.5824 28.6621 14.0788H22.7777C22.8886 14.6767 22.9663 15.2595 23.0111 15.8273C23.0577 16.3951 23.0811 16.9526 23.0811 17.5C23.0811 18.0474 23.0582 18.6049 23.0125 19.1727C22.9668 19.7405 22.889 20.3238 22.7792 20.9227M22.4758 12.6204H28.0671C27.2125 10.7693 26.042 9.28181 24.5554 8.15792C23.0689 7.03403 21.3359 6.31896 19.3565 6.01271C20.037 6.90813 20.649 7.93236 21.1925 9.08542C21.736 10.2375 22.1638 11.4158 22.4758 12.6204ZM14.0277 12.6204H20.9723C20.5873 11.2515 20.1124 10.0139 19.5475 8.9075C18.9826 7.80111 18.3001 6.7725 17.5 5.82167C16.6999 6.77153 16.0174 7.80014 15.4525 8.9075C14.8876 10.0149 14.4117 11.2525 14.0277 12.6204ZM6.93438 12.6204H12.5256C12.8377 11.4168 13.2655 10.2385 13.809 9.08542C14.3524 7.93236 14.9645 6.90813 15.645 6.01271C13.6481 6.31993 11.9107 7.03938 10.4329 8.17104C8.95515 9.30465 7.78848 10.7873 6.93293 12.619" fill="#C149C3"/>
</svg>
