<svg width="32" height="32" viewBox="0 0 32 32" fill="none" xmlns="http://www.w3.org/2000/svg">
<path d="M22.3027 4.2402C16.4134 1.0802 9.22008 2.8042 5.33341 8.0002V4.66687C5.33341 4.49006 5.26318 4.32049 5.13815 4.19546C5.01313 4.07044 4.84356 4.0002 4.66675 4.0002C4.48994 4.0002 4.32037 4.07044 4.19534 4.19546C4.07032 4.32049 4.00008 4.49006 4.00008 4.66687V10.0002C4.00008 10.177 4.07032 10.3466 4.19534 10.4716C4.32037 10.5966 4.48994 10.6669 4.66675 10.6669H10.0001C10.1769 10.6669 10.3465 10.5966 10.4715 10.4716C10.5965 10.3466 10.6667 10.177 10.6667 10.0002C10.6667 9.82339 10.5965 9.65382 10.4715 9.5288C10.3465 9.40377 10.1769 9.33353 10.0001 9.33353H6.02941C7.11278 7.70237 8.58074 6.36272 10.3039 5.43265C12.0271 4.50258 13.9526 4.01065 15.9107 4.0002C18.2755 3.99125 20.5897 4.68373 22.5608 5.99007C24.532 7.29642 26.0715 9.15794 26.9846 11.3392C27.8978 13.5205 28.1436 15.9236 27.6909 18.2446C27.2383 20.5656 26.1075 22.7003 24.4417 24.3786C22.7758 26.057 20.6497 27.2036 18.3321 27.6736C16.0146 28.1436 13.6097 27.9158 11.4217 27.0189C9.2336 26.1221 7.36063 24.5966 6.03959 22.6352C4.71856 20.6739 4.0088 18.3649 4.00008 16.0002C4.00008 15.7869 4.00008 15.5842 4.01208 15.3709C4.01712 15.2815 4.00408 15.1919 3.97376 15.1077C3.94344 15.0234 3.89644 14.9461 3.83559 14.8804C3.77474 14.8147 3.70127 14.7619 3.61957 14.7252C3.53787 14.6885 3.44962 14.6687 3.36008 14.6669C3.00008 14.6535 2.69341 14.9335 2.68008 15.2962C2.66675 15.5362 2.66675 15.7602 2.66675 16.0002C2.67475 23.3602 8.64008 29.3255 16.0001 29.3335C18.4106 29.3323 20.7757 28.6779 22.8441 27.4399C24.9124 26.202 26.6067 24.4267 27.7467 22.3029C31.2321 15.8122 28.7947 7.72553 22.3027 4.2402ZM16.0001 10.6669C15.8233 10.6669 15.6537 10.7371 15.5287 10.8621C15.4037 10.9872 15.3334 11.1567 15.3334 11.3335V16.0002C15.3334 16.177 15.4037 16.3466 15.5287 16.4716C15.6537 16.5966 15.8233 16.6669 16.0001 16.6669H19.3334C19.5102 16.6669 19.6798 16.5966 19.8048 16.4716C19.9298 16.3466 20.0001 16.177 20.0001 16.0002C20.0001 15.8234 19.9298 15.6538 19.8048 15.5288C19.6798 15.4038 19.5102 15.3335 19.3334 15.3335H16.6667V11.3335C16.6667 11.1567 16.5965 10.9872 16.4715 10.8621C16.3465 10.7371 16.1769 10.6669 16.0001 10.6669Z" fill="#C149C3"/>
</svg>
